<svg width="20" height="18" viewBox="0 0 20 18" fill="none" xmlns="http://www.w3.org/2000/svg">
<path d="M2.54136 13.0838C1.75486 9.93775 1.36161 8.36567 2.18753 7.30783C3.01253 6.25 4.63503 6.25 7.87728 6.25H12.1214C15.3646 6.25 16.9853 6.25 17.8112 7.30783C18.6371 8.36475 18.2439 9.93867 17.4574 13.0838C16.9569 15.0848 16.7075 16.0849 15.9614 16.6679C15.2152 17.25 14.1839 17.25 12.1214 17.25H7.87728C5.81478 17.25 4.78352 17.25 4.03736 16.6679C3.29119 16.0849 3.04094 15.0848 2.54136 13.0838Z" stroke="white" stroke-width="1.5"/>
<path d="M16.875 6.70768L16.2242 4.31977C15.973 3.39852 15.8474 2.93835 15.5898 2.59093C15.333 2.24577 14.9842 1.97988 14.5833 1.82368C14.18 1.66602 13.7033 1.66602 12.75 1.66602M3.125 6.70768L3.77583 4.31977C4.027 3.39852 4.15258 2.93835 4.41017 2.59093C4.667 2.24577 5.0158 1.97988 5.41667 1.82368C5.82 1.66602 6.29667 1.66602 7.25 1.66602" stroke="white" stroke-width="1.5"/>
<path d="M7.25 1.66667C7.25 1.42355 7.34658 1.19039 7.51849 1.01849C7.69039 0.846577 7.92355 0.75 8.16667 0.75H11.8333C12.0764 0.75 12.3096 0.846577 12.4815 1.01849C12.6534 1.19039 12.75 1.42355 12.75 1.66667C12.75 1.90978 12.6534 2.14294 12.4815 2.31485C12.3096 2.48676 12.0764 2.58333 11.8333 2.58333H8.16667C7.92355 2.58333 7.69039 2.48676 7.51849 2.31485C7.34658 2.14294 7.25 1.90978 7.25 1.66667Z" stroke="white" stroke-width="1.5"/>
<path d="M3.125 14.5L10 6.25M16.875 14.5L10.4583 6.70833M3.125 7.16667L10 17.25L16.875 7.16667" stroke="white" stroke-width="1.5" stroke-linecap="round" stroke-linejoin="round"/>
</svg>
