<svg width="18" height="19" viewBox="0 0 18 19" fill="none" xmlns="http://www.w3.org/2000/svg">
<path d="M8.99919 5.33V7.8275M9.01419 2C6.25419 2 4.01919 4.235 4.01919 6.995V8.57C4.01919 9.08 3.80919 9.845 3.54669 10.28L2.59419 11.87C2.00919 12.8525 2.41419 13.9475 3.49419 14.3075C7.08015 15.5 10.9557 15.5 14.5417 14.3075C14.7783 14.2286 14.9942 14.0975 15.1733 13.9239C15.3525 13.7504 15.4904 13.5388 15.5768 13.3048C15.6631 13.0708 15.6959 12.8204 15.6725 12.572C15.6491 12.3237 15.5702 12.0838 15.4417 11.87L14.4892 10.28C14.2267 9.845 14.0167 9.0725 14.0167 8.57V6.995C14.0092 4.25 11.7592 2 9.01419 2Z" stroke="#070707" stroke-width="1.5" stroke-miterlimit="10" stroke-linecap="round"/>
<path d="M11.497 14.6152C11.497 15.9877 10.372 17.1127 8.99945 17.1127C8.31695 17.1127 7.68695 16.8277 7.23695 16.3777C6.78695 15.9277 6.50195 15.2977 6.50195 14.6152" stroke="#070707" stroke-width="1.5" stroke-miterlimit="10"/>
</svg>
