<svg width="12" height="20" viewBox="0 0 12 20" fill="none" xmlns="http://www.w3.org/2000/svg">
<path d="M2.66071 0.572266C2.08766 0.572266 1.53807 0.799912 1.13286 1.20512C0.727646 1.61034 0.5 2.15992 0.5 2.73298V17.2687C0.5 17.8418 0.727646 18.3913 1.13286 18.7966C1.53807 19.2018 2.08766 19.4294 2.66071 19.4294H9.33929C9.91234 19.4294 10.4619 19.2018 10.8671 18.7966C11.2724 18.3913 11.5 17.8418 11.5 17.2687V2.73298C11.5 2.15992 11.2724 1.61034 10.8671 1.20512C10.4619 0.799912 9.91234 0.572266 9.33929 0.572266H2.66071ZM1.67857 2.73298C1.67857 2.19084 2.11857 1.75084 2.66071 1.75084H9.33929C9.88143 1.75084 10.3214 2.19084 10.3214 2.73298V17.2687C10.3214 17.8108 9.88143 18.2508 9.33929 18.2508H2.66071C2.11857 18.2508 1.67857 17.8108 1.67857 17.2687V2.73298ZM4.625 15.5008C4.46871 15.5008 4.31882 15.5629 4.20831 15.6734C4.0978 15.7839 4.03571 15.9338 4.03571 16.0901C4.03571 16.2464 4.0978 16.3963 4.20831 16.5068C4.31882 16.6173 4.46871 16.6794 4.625 16.6794H7.375C7.53129 16.6794 7.68118 16.6173 7.79169 16.5068C7.9022 16.3963 7.96429 16.2464 7.96429 16.0901C7.96429 15.9338 7.9022 15.7839 7.79169 15.6734C7.68118 15.5629 7.53129 15.5008 7.375 15.5008H4.625Z" fill="white"/>
</svg>
