<svg width="20" height="14" viewBox="0 0 20 14" fill="none" xmlns="http://www.w3.org/2000/svg">
<path d="M15.5009 5.16716C15.5009 4.92405 15.4044 4.69089 15.2325 4.51898C15.0605 4.34707 14.8274 4.2505 14.5843 4.2505H3.96011L6.06844 2.15133C6.24105 1.97872 6.33803 1.74461 6.33803 1.5005C6.33803 1.25639 6.24105 1.02227 6.06844 0.849662C5.89583 0.67705 5.66172 0.580078 5.41761 0.580078C5.1735 0.580078 4.93939 0.67705 4.76677 0.849662L1.10011 4.51633C0.972914 4.64523 0.886751 4.80893 0.852491 4.98675C0.818231 5.16457 0.83741 5.34856 0.907608 5.5155C0.976377 5.6829 1.09316 5.8262 1.24323 5.92733C1.39331 6.02847 1.56997 6.08293 1.75094 6.08383H14.5843C14.8274 6.08383 15.0605 5.98725 15.2325 5.81534C15.4044 5.64343 15.5009 5.41028 15.5009 5.16716ZM19.0943 8.4855C19.0255 8.31809 18.9087 8.17479 18.7586 8.07366C18.6086 7.97252 18.4319 7.91806 18.2509 7.91716H5.41761C5.17449 7.91716 4.94134 8.01374 4.76943 8.18565C4.59752 8.35756 4.50094 8.59071 4.50094 8.83383C4.50094 9.07694 4.59752 9.3101 4.76943 9.48201C4.94134 9.65392 5.17449 9.75049 5.41761 9.75049H16.0418L13.9334 11.8497C13.8475 11.9349 13.7793 12.0363 13.7328 12.148C13.6863 12.2597 13.6623 12.3795 13.6623 12.5005C13.6623 12.6215 13.6863 12.7413 13.7328 12.853C13.7793 12.9647 13.8475 13.0661 13.9334 13.1513C14.0187 13.2372 14.12 13.3054 14.2317 13.352C14.3434 13.3985 14.4633 13.4225 14.5843 13.4225C14.7053 13.4225 14.8251 13.3985 14.9368 13.352C15.0485 13.3054 15.1499 13.2372 15.2351 13.1513L18.9018 9.48466C19.029 9.35576 19.1151 9.19206 19.1494 9.01424C19.1837 8.83642 19.1645 8.65243 19.0943 8.4855Z" fill="white"/>
</svg>
