<svg width="20" height="16" viewBox="0 0 20 16" fill="none" xmlns="http://www.w3.org/2000/svg">
<path d="M15.1643 5.66015C14.0805 3.88659 12.6019 2.38711 10.8438 1.27848C10.0315 0.76371 9.10565 0.455588 8.14693 0.381021C7.18822 0.306454 6.22582 0.467709 5.34377 0.850707C4.57224 1.21463 3.9009 1.76088 3.38771 2.44229C2.87452 3.1237 2.53491 3.9198 2.39821 4.76182C2.34932 5.04904 2.31266 5.32404 2.27599 5.59293C1.70383 5.68567 1.18325 5.9787 0.807142 6.41973C0.431036 6.86076 0.223884 7.42108 0.222656 8.00071V11.7468C0.222656 12.071 0.351426 12.3818 0.580637 12.6111C0.809848 12.8403 1.12072 12.969 1.44488 12.969V8.00071C1.44488 7.67655 1.57365 7.36568 1.80286 7.13647C2.03207 6.90725 2.34295 6.77848 2.6671 6.77848H14.1132C15.291 6.7801 16.4201 7.2487 17.2529 8.08153C18.0858 8.91436 18.5544 10.0435 18.556 11.2213V11.6674H17.3338C17.0757 11.038 16.5949 10.5257 15.9831 10.2282C15.3714 9.93069 14.6715 9.86884 14.0171 10.0544C13.3627 10.24 12.7995 10.6601 12.435 11.2345C12.0705 11.8088 11.9303 12.4973 12.041 13.1684C12.1518 13.8396 12.5058 14.4465 13.0354 14.8733C13.5651 15.3001 14.2334 15.517 14.9127 15.4825C15.5921 15.448 16.235 15.1646 16.7187 14.6864C17.2025 14.2081 17.4932 13.5685 17.5354 12.8896H18.556C18.8801 12.8896 19.191 12.7608 19.4202 12.5316C19.6494 12.3024 19.7782 11.9915 19.7782 11.6674V11.2213C19.7757 9.90244 19.3137 8.62571 18.4716 7.61073C17.6295 6.59576 16.46 5.90601 15.1643 5.66015ZM5.72266 5.55626H3.23543C3.23543 5.36682 3.29043 5.17126 3.3271 4.94515C3.43268 4.27382 3.70822 3.64065 4.12751 3.10584C4.54681 2.57102 5.09592 2.15234 5.72266 1.8896V5.55626ZM6.94488 5.55626V1.63293C8.08579 1.48477 9.24287 1.73518 10.2204 2.34182C11.5549 3.17304 12.7067 4.26662 13.606 5.55626H6.94488ZM14.7671 14.344C14.4649 14.344 14.1696 14.2544 13.9183 14.0866C13.6671 13.9187 13.4713 13.6801 13.3556 13.4009C13.24 13.1218 13.2097 12.8146 13.2687 12.5182C13.3276 12.2218 13.4731 11.9496 13.6868 11.736C13.9005 11.5223 14.1727 11.3768 14.469 11.3178C14.7654 11.2589 15.0726 11.2891 15.3518 11.4048C15.6309 11.5204 15.8695 11.7162 16.0374 11.9675C16.2053 12.2187 16.2949 12.5141 16.2949 12.8163C16.2949 13.2215 16.1339 13.61 15.8474 13.8966C15.5609 14.1831 15.1723 14.344 14.7671 14.344Z" fill="white"/>
</svg>
